<?xml version="1.0" encoding="utf-8"?>
<!-- Generator: Adobe Illustrator 25.2.3, SVG Export Plug-In . SVG Version: 6.00 Build 0)  -->
<svg version="1.1" id="Calque_1" xmlns="http://www.w3.org/2000/svg" xmlns:xlink="http://www.w3.org/1999/xlink" x="0px" y="0px"
	 viewBox="0 0 27 27" style="enable-background:new 0 0 27 27;" xml:space="preserve">
<style type="text/css">
	.st0{fill-rule:evenodd;clip-rule:evenodd;}
</style>
<path id="ellipsis-vertical-outline" transform="translate(-223.425 -62.898)" class="st0" d="M237.2,78.6c-1.1,0-2-0.9-2-2
	c0-1.1,0.9-2,2-2s2,0.9,2,2C239.2,77.7,238.3,78.6,237.2,78.6z M237.2,75.6c-0.6,0-1,0.4-1,1c0,0.6,0.4,1,1,1s1-0.4,1-1
	C238.2,76.1,237.8,75.6,237.2,75.6z M237.2,85.6c-1.1,0-2-0.9-2-2s0.9-2,2-2s2,0.9,2,2S238.3,85.6,237.2,85.6z M237.2,82.6
	c-0.6,0-1,0.4-1,1s0.4,1,1,1s1-0.4,1-1S237.8,82.6,237.2,82.6z M237.2,71.6c-1.1,0-2-0.9-2-2s0.9-2,2-2s2,0.9,2,2
	S238.3,71.6,237.2,71.6z M237.2,68.6c-0.6,0-1,0.4-1,1s0.4,1,1,1s1-0.4,1-1S237.8,68.6,237.2,68.6z"/>
</svg>
