<?xml version="1.0" encoding="utf-8"?>
<!-- Generator: Adobe Illustrator 25.2.3, SVG Export Plug-In . SVG Version: 6.00 Build 0)  -->
<svg version="1.1" id="Calque_1" xmlns="http://www.w3.org/2000/svg" xmlns:xlink="http://www.w3.org/1999/xlink" x="0px" y="0px"
	 viewBox="0 0 16 16" style="enable-background:new 0 0 16 16;" xml:space="preserve">
<style type="text/css">
	.st0{fill-rule:evenodd;clip-rule:evenodd;}
</style>
<path id="Tracé_148" class="st0" d="M14.9,2.2c0.2,0,0.5,0.1,0.7,0.3C15.9,2.7,16,3,16,3.3v10c0,0.2-0.1,0.5-0.3,0.7
	c-0.2,0.2-0.5,0.3-0.8,0.3H1.1c-0.3,0-0.6-0.1-0.8-0.3C0.1,13.8,0,13.5,0,13.2V3.3c0-0.2,0.1-0.5,0.3-0.7c0.2-0.3,0.5-0.4,0.8-0.4
	C1.1,2.2,14.9,2.2,14.9,2.2z M4.5,4.7C4.2,4.4,3.9,4.2,3.5,4.2c-0.4,0-0.8,0.1-1.1,0.4C2.1,4.9,2,5.3,2,5.7c0,0.4,0.1,0.8,0.4,1.1
	c0.3,0.3,0.7,0.4,1.1,0.4c0.4,0,0.8-0.1,1.1-0.4c0.3-0.3,0.4-0.7,0.4-1.1C4.9,5.3,4.8,4.9,4.5,4.7z M14,12.2l-4-6l-3.6,4.7L4,9.2
	l-2,3.1L14,12.2L14,12.2z"/>
</svg>
