<?xml version="1.0" encoding="utf-8"?>
<!-- Generator: Adobe Illustrator 25.2.3, SVG Export Plug-In . SVG Version: 6.00 Build 0)  -->
<svg version="1.1" id="Capa_1" xmlns="http://www.w3.org/2000/svg" xmlns:xlink="http://www.w3.org/1999/xlink" x="0px" y="0px"
	 viewBox="0 0 407.7 407.7" style="enable-background:new 0 0 407.7 407.7;" xml:space="preserve">
<style type="text/css">
	.st0{fill-rule:evenodd;clip-rule:evenodd;}
</style>
<path class="st0" d="M120.9,314c-12.1-20.5-17.3-44.4-14.7-68c27.9,14.1,53,33.2,74.1,56.3l5.9,9.9v-40.5
	c-24.7-12.8-46.9-30-65.2-51c-12.1-20.5-17.3-44.3-14.7-68c27.9,14,53,33,74.1,56.1l5.9,10.3v-40.7c-24.7-12.8-46.9-30-65.2-51
	c-12.1-20.5-17.3-44.4-14.7-68c27.9,14.1,53,33.2,74.1,56.3c1.8,2.5,3.4,5.2,4.8,8c-3.1-10.4-4.8-21.1-5.2-32
	c2.3-28.6,10.2-56.4,23.3-81.9c13.7,24.5,22.1,51.6,24.7,79.6c0,11.4-1.7,22.8-5,33.7c1.4-2.6,3-5.1,4.6-7.5
	c21-23.1,46.1-42.2,74.1-56.3c2.6,23.7-2.6,47.6-14.8,68.1c-18.3,20.9-40.5,38.2-65.2,51v40.8l5.9-10.3c21-23.1,46.1-42.2,74.1-56.2
	c2.6,23.7-2.6,47.5-14.7,68c-18.3,20.9-40.5,38.2-65.2,51v40.5l5.9-9.9c21-23.1,46.1-42.2,74.1-56.3c2.6,23.7-2.6,47.5-14.7,68
	c-18.3,20.9-40.5,38.2-65.2,51v31.9h-35.5v-32C161.3,352.2,139.2,334.9,120.9,314z"/>
</svg>
