<?xml version="1.0" encoding="utf-8"?>
<!-- Generator: Adobe Illustrator 25.2.3, SVG Export Plug-In . SVG Version: 6.00 Build 0)  -->
<svg version="1.1" id="Calque_1" xmlns="http://www.w3.org/2000/svg" xmlns:xlink="http://www.w3.org/1999/xlink" x="0px" y="0px"
	 viewBox="0 0 30 30" style="enable-background:new 0 0 30 30;" xml:space="preserve">
<style type="text/css">
	.st0{fill-rule:evenodd;clip-rule:evenodd;}
</style>
<path id="icon-search" transform="translate(0 0)" class="st0" d="M27.9,25.5l-5.4-5.4c1.5-2,2.3-4.4,2.3-6.9
	c0-6.3-5-11.4-11.3-11.4c-0.1,0-0.1,0-0.1,0C7.1,1.9,2,6.9,2,13.2c0,0.1,0,0.1,0,0.1c0,6.3,5,11.4,11.3,11.4c0.1,0,0.1,0,0.1,0
	c2.5,0,4.9-0.8,6.8-2.3l5.4,5.4L27.9,25.5z M5.2,13.3c-0.1-4.5,3.5-8.1,8-8.1c0.1,0,0.1,0,0.2,0c4.5-0.1,8.1,3.5,8.1,8
	c0,0.1,0,0.1,0,0.2c0,4.5-3.5,8.1-8,8.1c-0.1,0-0.1,0-0.2,0c-4.5,0-8.1-3.5-8.1-8C5.2,13.4,5.2,13.4,5.2,13.3z"/>
</svg>
