<?xml version="1.0" encoding="utf-8"?>
<!-- Generator: Adobe Illustrator 25.2.3, SVG Export Plug-In . SVG Version: 6.00 Build 0)  -->
<svg version="1.1" id="Capa_1" xmlns="http://www.w3.org/2000/svg" xmlns:xlink="http://www.w3.org/1999/xlink" x="0px" y="0px"
	 viewBox="0 0 407.7 407.7" style="enable-background:new 0 0 407.7 407.7;" xml:space="preserve">
<style type="text/css">
	.st0{fill-rule:evenodd;clip-rule:evenodd;}
</style>
<path class="st0" d="M236.4,312c1.6,1.8,3.3,3.4,5,5C239.7,315.4,238,313.8,236.4,312z M291.2,188.2c-2.6,0-5.1,0.1-7.6,0.4
	C286.1,188.4,288.6,188.2,291.2,188.2L291.2,188.2z M344.7,313.3c-0.8,0.9-1.7,1.7-2.5,2.5C343.1,315,343.9,314.2,344.7,313.3z
	 M358.4,293.3c-0.4,0.9-0.8,1.8-1.3,2.7C357.5,295.1,357.9,294.2,358.4,293.3z M326.5,327.3c-1.8,1-3.6,1.8-5.4,2.7
	C322.9,329.1,324.7,328.3,326.5,327.3z M291.2,336.2L291.2,336.2c-2.6,0-5.1-0.1-7.6-0.4C286.1,336.1,288.6,336.2,291.2,336.2z
	 M236.4,312c-2.4-2.6-4.6-5.4-6.6-8.4C231.8,306.6,234,309.4,236.4,312z M283.6,335.9c-3.7-0.4-7.4-1-10.9-1.9
	C276.2,334.8,279.9,335.5,283.6,335.9z M265.7,331.8c-3.4-1.2-6.7-2.7-9.8-4.4C259.1,329,262.3,330.5,265.7,331.8z M326.1,197.2
	c-1-0.6-2.1-1.1-3.2-1.6c-7.1-3.4-14.8-5.7-22.9-6.7c0.2,0,0.3,0,0.5,0.1v-86.7c0-2.6-2.1-4.7-4.7-4.7h-11.4V86.7
	c0-2.4-1.8-4.4-4.2-4.7l-65.8-7.7c-14.8-1.7-29.5,0.7-42.9,7.1c-13.4-6.4-28.1-8.9-42.9-7.1L62.8,82c-2.4,0.3-4.2,2.3-4.2,4.7v10.7
	H47.2c-2.6,0-4.7,2.1-4.7,4.7v155.3c0,2.6,2.1,4.7,4.7,4.7h169.6c0,15.3,4.7,29.6,12.6,41.4c2,3,4.2,5.8,6.6,8.4
	c1.6,1.8,3.3,3.4,5,5c4.4,4,9.2,7.4,14.5,10.3c3.1,1.7,6.4,3.2,9.8,4.4c2.3,0.8,4.6,1.6,6.9,2.2c3.5,0.9,7.2,1.6,10.9,1.9
	c2.5,0.3,5,0.4,7.6,0.4c10.6,0,20.7-2.3,29.8-6.3c1.9-0.8,3.7-1.7,5.4-2.7c1-0.6,2.1-1.2,3.1-1.8c4.6-2.8,8.8-6,12.6-9.7
	c0.9-0.8,1.7-1.7,2.5-2.5c4.9-5.1,9.1-11,12.3-17.4c0.4-0.9,0.9-1.8,1.3-2.7c4.4-9.4,6.8-20,6.8-31.1
	C364.9,234.1,349.2,209.7,326.1,197.2z M290.8,188.2c-2.2,0-4.3,0.1-6.4,0.3v-81.6h6.6v81.3H290.8z M68.1,90.9l61.6-7.2
	c12.7-1.5,25.5,0.6,37,6V230c-9.2-3.7-19-5.6-29-5.6c-3.1,0-6.1,0.2-9.2,0.5L68,232L68.1,90.9L68.1,90.9z M217.5,252.7H52V106.9h6.6
	v130.5c0,1.4,0.6,2.6,1.6,3.5s2.4,1.3,3.7,1.2l65.8-7.7c13.7-1.6,27.4,0.9,39.6,7.2c1.4,0.7,3,0.7,4.4,0c12.2-6.3,25.9-8.8,39.6-7.2
	l8.6,1C219.7,240.9,218.2,246.7,217.5,252.7z M243.8,205.1c-3.5,2.9-6.8,6.2-9.7,9.7c-1.3,1.6-2.5,3.2-3.7,4.9
	c-1,1.4-1.9,2.8-2.8,4.2c-0.5,0.8-1,1.6-1.4,2.5l-11.7-1.4c-13-1.5-26.1,0.2-38.1,5.1V89.6c11.6-5.4,24.3-7.5,37-6l61.6,7.2V190
	c-0.9,0.2-1.7,0.4-2.6,0.6c-2.4,0.6-4.7,1.3-6.9,2.2c-2.3,0.8-4.5,1.8-6.6,2.8c-1.1,0.5-2.1,1.1-3.2,1.6c-3.1,1.7-6.2,3.6-9,5.8
	C245.6,203.7,244.7,204.4,243.8,205.1z M327.7,268H295v32.6c0,2.1-1.7,3.9-3.9,3.9l0,0c-2.1,0-3.9-1.7-3.9-3.9V268h-32.6
	c-2.1,0-3.9-1.7-3.9-3.9s1.7-3.9,3.9-3.9h32.6v-32.6c0-2.1,1.7-3.9,3.9-3.9l0,0c2.1,0,3.9,1.7,3.9,3.9v32.6h32.6
	c2.1,0,3.9,1.7,3.9,3.9S329.8,268,327.7,268z"/>
</svg>
