<?xml version="1.0" encoding="utf-8"?>
<!-- Generator: Adobe Illustrator 25.2.2, SVG Export Plug-In . SVG Version: 6.00 Build 0)  -->
<svg version="1.1" id="Calque_1" xmlns="http://www.w3.org/2000/svg" xmlns:xlink="http://www.w3.org/1999/xlink" x="0px" y="0px"
	 viewBox="0 0 16 16" style="enable-background:new 0 0 16 16;" xml:space="preserve">
<style type="text/css">
	.st0{fill:#F03434;}
	.st1{fill:none;}
	.st2{fill:#5B5B5B;}
</style>
<path id="Tracé_110" class="st0" d="M-274.45-402.91l-5.69,5.85l-2.46,7.08l7.08-2.31l5.69-5.69L-274.45-402.91z M-267.21-403.38
	l-2-2c-0.69-0.76-1.87-0.83-2.63-0.13c-0.05,0.04-0.09,0.09-0.13,0.13l-1.69,1.69l4.61,4.77l1.85-1.85
	c0.38-0.36,0.61-0.86,0.62-1.38C-266.64-402.62-266.86-403.06-267.21-403.38z"/>
<rect id="Rectangle_481" x="0" y="0" class="st1" width="16" height="16"/>
<path id="Tracé_259" class="st2" d="M12,0c0.27-0.01,0.52,0.1,0.7,0.3C12.9,0.48,13.01,0.73,13,1v14c-0.01,0.55-0.45,0.99-1,1H4
	c-0.27,0.01-0.52-0.1-0.7-0.3C3.1,15.52,2.99,15.27,3,15V1C2.99,0.73,3.1,0.48,3.3,0.3C3.48,0.1,3.73-0.01,4,0H12z M11.3,12V2.7H4.7
	V12H11.3z M7.3,14.7C7.48,14.9,7.73,15.01,8,15c0.27,0.01,0.52-0.1,0.7-0.3c0.39-0.37,0.4-0.98,0.03-1.37
	c-0.01-0.01-0.02-0.02-0.03-0.03C8.52,13.1,8.27,12.99,8,13c-0.27-0.01-0.52,0.1-0.7,0.3c-0.39,0.37-0.4,0.98-0.03,1.37
	C7.28,14.68,7.29,14.69,7.3,14.7z"/>
</svg>
