<?xml version="1.0" encoding="utf-8"?>
<!-- Generator: Adobe Illustrator 25.2.3, SVG Export Plug-In . SVG Version: 6.00 Build 0)  -->
<svg version="1.1" id="Calque_1" xmlns="http://www.w3.org/2000/svg" xmlns:xlink="http://www.w3.org/1999/xlink" x="0px" y="0px"
	 viewBox="0 0 16 16" style="enable-background:new 0 0 16 16;" xml:space="preserve">
<style type="text/css">
	.st0{fill-rule:evenodd;clip-rule:evenodd;}
</style>
<path id="Tracé_259" class="st0" d="M12,0c0.3,0,0.5,0.1,0.7,0.3C12.9,0.5,13,0.7,13,1v14c0,0.6-0.4,1-1,1H4
	c-0.3,0-0.5-0.1-0.7-0.3C3.1,15.5,3,15.3,3,15V1c0-0.3,0.1-0.5,0.3-0.7C3.5,0.1,3.7,0,4,0H12z M11.3,12V2.7H4.7V12H11.3z M7.3,14.7
	C7.5,14.9,7.7,15,8,15c0.3,0,0.5-0.1,0.7-0.3c0.4-0.4,0.4-1,0-1.4c0,0,0,0,0,0C8.5,13.1,8.3,13,8,13c-0.3,0-0.5,0.1-0.7,0.3
	C6.9,13.7,6.9,14.3,7.3,14.7C7.3,14.7,7.3,14.7,7.3,14.7z"/>
</svg>
