<?xml version="1.0" encoding="utf-8"?>
<!-- Generator: Adobe Illustrator 25.2.3, SVG Export Plug-In . SVG Version: 6.00 Build 0)  -->
<svg version="1.1" id="Calque_1" xmlns="http://www.w3.org/2000/svg" xmlns:xlink="http://www.w3.org/1999/xlink" x="0px" y="0px"
	 viewBox="0 0 16 16" style="enable-background:new 0 0 16 16;" xml:space="preserve">
<style type="text/css">
	.st0{fill-rule:evenodd;clip-rule:evenodd;}
</style>
<path id="icon-camera" class="st0" d="M8,10.5c1.1,0,2-0.9,2-2s-0.9-2-2-2s-2,0.9-2,2S6.9,10.5,8,10.5z M8,4.5c2.2,0,4,1.8,4,4
	s-1.8,4-4,4s-4-1.8-4-4C4,6.3,5.8,4.5,8,4.5z M14,15.5H2c-0.5,0-1-0.2-1.4-0.6C0.2,14.5,0,14,0,13.5v-9c0-1.1,0.9-2,2-2h1.6L5.1,1
	c0.3-0.3,0.8-0.5,1.2-0.5h3.5c0.4,0,0.8,0.2,1.1,0.5l1.5,1.5H14c1.1,0,2,0.9,2,2v9C16,14.6,15.1,15.5,14,15.5z"/>
</svg>
