<?xml version="1.0" encoding="utf-8"?>
<!-- Generator: Adobe Illustrator 25.2.3, SVG Export Plug-In . SVG Version: 6.00 Build 0)  -->
<svg version="1.1" id="Calque_1" xmlns="http://www.w3.org/2000/svg" xmlns:xlink="http://www.w3.org/1999/xlink" x="0px" y="0px"
	 viewBox="0 0 27 27" style="enable-background:new 0 0 27 27;" xml:space="preserve">
<style type="text/css">
	.st0{fill-rule:evenodd;clip-rule:evenodd;}
</style>
<path id="Tracé_149" class="st0" d="M4.6,8.9v13.8h18.4V8.9C23.1,8.9,4.6,8.9,4.6,8.9z M21.5,4.3h3.1c0.8,0,1.5,0.6,1.5,1.4v0.2
	v18.4c0,0.8-0.6,1.5-1.4,1.5h-0.2H3.1c-0.8,0-1.5-0.6-1.5-1.4v-0.2V5.8c0-0.8,0.6-1.5,1.4-1.5h0.2h3.1V2.7c0-0.8,0.6-1.5,1.4-1.5
	h0.2c0.8,0,1.5,0.6,1.5,1.4v0.2v1.5h9.2V2.7c0-0.9,0.6-1.5,1.5-1.5c0.9,0,1.5,0.6,1.5,1.5V4.3z M20,19.6h-3.1v-3.1H20V19.6z
	 M15.4,19.6h-3.1v-3.1h3.1V19.6z M20,15h-3.1V12H20V15z M15.4,15h-3.1V12h3.1V15z M10.8,19.6H7.7v-3.1h3.1V19.6z"/>
</svg>
