<?xml version="1.0" encoding="utf-8"?>
<!-- Generator: Adobe Illustrator 25.2.2, SVG Export Plug-In . SVG Version: 6.00 Build 0)  -->
<svg version="1.1" id="Calque_1" xmlns="http://www.w3.org/2000/svg" xmlns:xlink="http://www.w3.org/1999/xlink" x="0px" y="0px"
	 viewBox="0 0 30 30" style="enable-background:new 0 0 30 30;" xml:space="preserve">
<style type="text/css">
	.st0{fill:#FFFFFF;}
</style>
<g id="icon-search" transform="translate(0 0)">
	<path id="Tracé_99" class="st0" d="M27.9,25.55l-5.38-5.38c1.5-1.97,2.3-4.38,2.28-6.85C24.84,7.05,19.79,1.94,13.52,1.9
		c-0.05,0-0.09,0-0.14,0C7.12,1.87,2.01,6.91,1.97,13.18c0,0.05,0,0.09,0,0.14C1.93,19.59,6.98,24.7,13.24,24.74
		c0.05,0,0.09,0,0.14,0c2.47,0.02,4.88-0.78,6.85-2.28l5.38,5.38L27.9,25.55z M5.23,13.32c-0.05-4.46,3.53-8.11,7.99-8.15
		c0.06,0,0.11,0,0.17,0c4.46-0.05,8.11,3.53,8.15,7.99c0,0.06,0,0.11,0,0.17c0.05,4.46-3.53,8.11-7.99,8.15c-0.06,0-0.11,0-0.17,0
		c-4.46,0.05-8.11-3.53-8.15-7.99C5.23,13.43,5.23,13.38,5.23,13.32z"/>
</g>
</svg>
