<?xml version="1.0" encoding="utf-8"?>
<!-- Generator: Adobe Illustrator 25.2.3, SVG Export Plug-In . SVG Version: 6.00 Build 0)  -->
<svg version="1.1" id="Calque_1" xmlns="http://www.w3.org/2000/svg" xmlns:xlink="http://www.w3.org/1999/xlink" x="0px" y="0px"
	 viewBox="0 0 16 16" style="enable-background:new 0 0 16 16;" xml:space="preserve">
<style type="text/css">
	.st0{fill-rule:evenodd;clip-rule:evenodd;}
</style>
<path id="Tracé_146" class="st0" d="M8,0C3.6,0,0,3.6,0,8s3.6,8,8,8s8-3.6,8-8C16,3.6,12.4,0,8,0z M7.9,13.3
	c-0.6,0-1.1-0.5-1.1-1.1S7.3,11,7.9,11S9,11.5,9,12.2l0,0C9.1,12.8,8.6,13.3,7.9,13.3C8,13.3,7.9,13.3,7.9,13.3z M10.1,7L9.2,8
	C9,8.2,8.9,8.4,8.9,8.7c0,0.5-0.4,0.9-1,1C7.4,9.7,7,9.3,7,8.8c0,0,0-0.1,0-0.1c0-0.6,0.2-1.1,0.6-1.4l0.7-0.9
	c0.3-0.3,0.5-0.7,0.6-1.1c0-0.5-0.3-0.9-0.8-0.9c0,0-0.1,0-0.1,0c-0.4,0-0.8,0.3-1,0.7c-0.2,0.4-0.6,0.6-1,0.6
	c-0.5,0-0.9-0.3-0.9-0.8c0,0,0-0.1,0-0.1c0-0.1,0-0.3,0.1-0.4C5.7,3.3,6.8,2.6,8,2.7c1.4-0.1,2.7,1,2.8,2.4c0,0.1,0,0.1,0,0.2
	C10.8,5.9,10.5,6.6,10.1,7z"/>
</svg>
