<?xml version="1.0" encoding="utf-8"?>
<!-- Generator: Adobe Illustrator 25.2.3, SVG Export Plug-In . SVG Version: 6.00 Build 0)  -->
<svg version="1.1" id="Calque_1" xmlns="http://www.w3.org/2000/svg" xmlns:xlink="http://www.w3.org/1999/xlink" x="0px" y="0px"
	 viewBox="0 0 16 16" style="enable-background:new 0 0 16 16;" xml:space="preserve">
<style type="text/css">
	.st0{fill-rule:evenodd;clip-rule:evenodd;}
</style>
<path class="st0" d="M14.9,14h-5c0,1.1-0.9,2-2,2s-2-0.9-2-2h-5c-0.4,0-0.8-0.3-0.9-0.7c-0.1-0.4,0-0.8,0.3-1.1
	c1-0.8,1.6-1.9,1.6-3.2V6c0-3.3,2.7-6,6-6s6,2.7,6,6v3c0,1.3,0.6,2.4,1.6,3.2c0.3,0.3,0.5,0.7,0.3,1.1C15.7,13.7,15.4,14,14.9,14z"
	/>
</svg>
