<?xml version="1.0" encoding="utf-8"?>
<!-- Generator: Adobe Illustrator 25.2.2, SVG Export Plug-In . SVG Version: 6.00 Build 0)  -->
<svg version="1.1" id="Calque_1" xmlns="http://www.w3.org/2000/svg" xmlns:xlink="http://www.w3.org/1999/xlink" x="0px" y="0px"
	 viewBox="0 0 16 16" style="enable-background:new 0 0 16 16;" xml:space="preserve">
<style type="text/css">
	.st0{fill:#F03434;}
	.st1{fill:none;}
	.st2{fill-rule:evenodd;clip-rule:evenodd;}
</style>
<path id="Tracé_110" class="st0" d="M-274.45-402.91l-5.69,5.85l-2.46,7.08l7.08-2.31l5.69-5.69L-274.45-402.91z M-267.21-403.38
	l-2-2c-0.69-0.76-1.87-0.83-2.63-0.13c-0.05,0.04-0.09,0.09-0.13,0.13l-1.69,1.69l4.61,4.77l1.85-1.85
	c0.38-0.36,0.61-0.86,0.62-1.38C-266.64-402.62-266.86-403.06-267.21-403.38z"/>
<rect id="Rectangle_481" x="0" y="0" class="st1" width="16" height="16"/>
<rect id="Rectangle_312" x="-12.33" y="1.03" class="st1" width="16" height="16"/>
<g id="icon-like" transform="translate(0)">
	<path id="Heart" class="st2" d="M14.72,2.28c-1.67-1.69-4.39-1.71-6.08-0.04C8.63,2.25,8.61,2.26,8.6,2.28L8,2.88l-0.6-0.6
		c-1.69-1.69-4.43-1.69-6.12,0s-1.69,4.43,0,6.12L8,15.12l6.72-6.72c1.69-1.67,1.71-4.39,0.04-6.08C14.74,2.3,14.73,2.29,14.72,2.28
		"/>
	<rect id="Rectangle_1450" x="0" class="st1" width="16" height="16"/>
</g>
</svg>
