<?xml version="1.0" encoding="utf-8"?>
<!-- Generator: Adobe Illustrator 25.2.3, SVG Export Plug-In . SVG Version: 6.00 Build 0)  -->
<svg version="1.1" id="Calque_1" xmlns="http://www.w3.org/2000/svg" xmlns:xlink="http://www.w3.org/1999/xlink" x="0px" y="0px"
	 viewBox="0 0 16 16" style="enable-background:new 0 0 16 16;" xml:space="preserve">
<style type="text/css">
	.st0{fill:#5B5B5B;}
</style>
<path class="st0" d="M0,12.9V3c0-0.3,0.1-0.5,0.3-0.7C0.5,2.1,0.7,2,1,2h5.8C6.9,2,7,2,7.1,2.2c0.2,0.1,0.3,0.2,0.3,0.4L8,4h7
	c0.3,0,0.5,0.1,0.7,0.3C15.9,4.4,16,4.7,16,5v8c0,0.3-0.1,0.5-0.3,0.7C15.5,13.9,15.2,14,15,14H1c-0.3,0-0.5-0.1-0.7-0.3
	C0.1,13.5,0,13.2,0,12.9z"/>
</svg>
