<?xml version="1.0" encoding="utf-8"?>
<!-- Generator: Adobe Illustrator 25.2.3, SVG Export Plug-In . SVG Version: 6.00 Build 0)  -->
<svg version="1.1" id="Calque_1" xmlns="http://www.w3.org/2000/svg" xmlns:xlink="http://www.w3.org/1999/xlink" x="0px" y="0px"
	 viewBox="0 0 16 16" style="enable-background:new 0 0 16 16;" xml:space="preserve">
<style type="text/css">
	.st0{fill-rule:evenodd;clip-rule:evenodd;}
</style>
<path class="st0" d="M7.9,9.9C9,9.9,9.8,9.1,9.8,8S9,6.1,7.9,6.1S6,6.9,6,8C6,9.1,6.8,9.9,7.9,9.9z M3.9,3.8c0.7-0.6,1.5-1,2.3-1.3
	L7,0.3H9l0.8,2.2c0.8,0.3,1.6,0.7,2.3,1.3l2.3-0.5l1,1.7l-1.5,1.7c0.1,0.4,0.1,0.8,0.1,1.3c0,0.4-0.1,0.9-0.1,1.3l1.5,1.7l-1,1.7
	l-2.3-0.5c-0.7,0.6-1.5,1-2.3,1.3L9,15.7H7l-0.8-2.2c-0.8-0.3-1.6-0.7-2.3-1.3l-2.3,0.5l-1-1.7l1.5-1.7C2.1,8.8,2.1,8.4,2.1,8
	c0-0.4,0.1-0.9,0.1-1.3L0.7,5l1-1.7L3.9,3.8z"/>
</svg>
