<?xml version="1.0" encoding="utf-8"?>
<!-- Generator: Adobe Illustrator 25.2.2, SVG Export Plug-In . SVG Version: 6.00 Build 0)  -->
<svg version="1.1" id="Calque_1" xmlns="http://www.w3.org/2000/svg" xmlns:xlink="http://www.w3.org/1999/xlink" x="0px" y="0px"
	 viewBox="0 0 16 16" style="enable-background:new 0 0 16 16;" xml:space="preserve">
<style type="text/css">
	.st0{fill:#F03434;}
	.st1{fill:none;}
	.st2{fill-rule:evenodd;clip-rule:evenodd;fill:#707070;}
</style>
<path id="Tracé_110" class="st0" d="M-274.45-402.91l-5.69,5.85l-2.46,7.08l7.08-2.31l5.69-5.69L-274.45-402.91z M-267.21-403.38
	l-2-2c-0.69-0.76-1.87-0.83-2.63-0.13c-0.05,0.04-0.09,0.09-0.13,0.13l-1.69,1.69l4.61,4.77l1.85-1.85
	c0.38-0.36,0.61-0.86,0.62-1.38C-266.64-402.62-266.86-403.06-267.21-403.38z"/>
<rect id="Rectangle_481" x="0" y="0" class="st1" width="16" height="16"/>
<rect id="Rectangle_118" x="0" class="st1" width="16" height="16"/>
<path id="Tracé_49" class="st2" d="M8,8c1.1,0,2,0.9,2,2s-0.9,2-2,2s-2-0.9-2-2C6,8.9,6.9,8,8,8z M8,2C6.9,2,6,2.9,6,4h4
	C10,2.9,9.1,2,8,2z M13,16H3c-1.1,0-2-0.9-2-2V6c0-1.1,0.9-2,2-2h1c0-2.21,1.79-4,4-4s4,1.79,4,4h1c1.1,0,2,0.9,2,2v8
	C15,15.1,14.1,16,13,16z"/>
</svg>
