<?xml version="1.0" encoding="utf-8"?>
<!-- Generator: Adobe Illustrator 25.2.3, SVG Export Plug-In . SVG Version: 6.00 Build 0)  -->
<svg version="1.1" id="Calque_2" xmlns="http://www.w3.org/2000/svg" xmlns:xlink="http://www.w3.org/1999/xlink" x="0px" y="0px"
	 viewBox="0 0 512 512" style="enable-background:new 0 0 512 512;" xml:space="preserve">
<style type="text/css">
	.st0{fill-rule:evenodd;clip-rule:evenodd;}
</style>
<path class="st0" d="M457.1,6c-13.2,0.3-25.3,5.9-34.2,15.7C263.7,198.3,272.7,186.5,270,195.9l-166.3,46.9c-97.1,27.5-130,148.3-60.8,221.3
	c0.1,0.1,2.8,2.9,2.5,2.7c72.1,72.1,196,40.5,224-58.3l34.5-122c1.4-5-1.5-10.1-6.4-11.5c-5-1.4-10.1,1.5-11.5,6.4l-34.5,122
	c-19.7,69.5-98.9,104.8-163.9,71.3c77.9-0.8,134.8-58,164.9-129.1c2-4.7-0.2-10.2-5-12.2c-4.7-2-10.2,0.2-12.2,5
	c-30.5,72-87.5,125-165,116.9l199.7-199.7c3.6-3.6,3.6-9.6,0-13.2c-3.6-3.6-9.6-3.6-13.2,0L56.9,441.9
	c-8.6-82.4,52.6-141.5,129.4-169.9c4.8-1.8,7.3-7.2,5.5-12c-1.8-4.8-7.2-7.3-12-5.5C102.8,283,38.3,341.9,37.5,424.6
	c-33.5-65,1.7-144.2,71.2-163.9l162-45.6c2.8,7.4,6.5,10.2,15.7,19.4c11.3,11.3,29.5,11.8,41.4,1.1L490.2,89.1
	C522.9,59.7,501.4,4.8,457.1,6L457.1,6z M477.7,75.2L315.3,221.7c-4.5,4.1-11.4,3.9-15.7-0.4l-8.9-8.9c-4.3-4.3-4.5-11.2-0.4-15.7
	L436.8,34.3c11.1-12.4,30.3-12.8,42.1-1.1C490.6,44.9,490.1,64.1,477.7,75.2L477.7,75.2z M461.8,50.2c3.6,3.6,3.6,9.6,0,13.2
	c-10.5,10.5-11.9,13.1-17,13.1c-8.2,0-12.5-10-6.6-15.9l10.4-10.4C452.2,46.6,458.1,46.6,461.8,50.2L461.8,50.2z"/>
</svg>
