<?xml version="1.0" encoding="utf-8"?>
<!-- Generator: Adobe Illustrator 25.2.3, SVG Export Plug-In . SVG Version: 6.00 Build 0)  -->
<svg version="1.1" id="Calque_1" xmlns="http://www.w3.org/2000/svg" xmlns:xlink="http://www.w3.org/1999/xlink" x="0px" y="0px"
	 viewBox="0 0 24 24" style="enable-background:new 0 0 24 24;" xml:space="preserve">
<style type="text/css">
	.st0{fill-rule:evenodd;clip-rule:evenodd;}
</style>
<path class="st0" d="M8.1,13.3l2.8-2.8l-7-7c-1.6,1.6-1.6,4.1,0,5.7L8.1,13.3z M14.9,11.5c1.5,0.7,3.7,0.2,5.3-1.4C22.1,8.2,22.4,5.5,21,4
	c-1.5-1.5-4.2-1.1-6.1,0.8c-1.6,1.6-2.1,3.7-1.4,5.3l-9.8,9.8l1.4,1.4l6.9-6.9l6.9,6.9l1.4-1.4L13.4,13C13.4,13,14.9,11.5,14.9,11.5
	z"/>
</svg>
