<?xml version="1.0" encoding="utf-8"?>
<!-- Generator: Adobe Illustrator 25.2.3, SVG Export Plug-In . SVG Version: 6.00 Build 0)  -->
<svg version="1.1" id="Calque_1" xmlns="http://www.w3.org/2000/svg" xmlns:xlink="http://www.w3.org/1999/xlink" x="0px" y="0px"
	 viewBox="0 0 512 512" style="enable-background:new 0 0 512 512;" xml:space="preserve">
<style type="text/css">
	.st0{fill-rule:evenodd;clip-rule:evenodd;}
</style>
<path class="st0" d="M432,112h-48V96c0-26.5-21.5-48-48-48H176c-26.5,0-48,21.5-48,48v16H80c-35.3,0-64,28.7-64,64v224c0,35.3,28.7,64,64,64h352
	c35.3,0,64-28.7,64-64V176C496,140.7,467.3,112,432,112z M160,96c0-8.8,7.2-16,16-16h160c8.8,0,16,7.2,16,16v16H160V96z M80,144h352
	c17.6,0,32,14.4,32,32v48H48v-48C48,158.4,62.4,144,80,144z M432,432H80c-17.6,0-32-14.4-32-32V256h128v8c0,13.2,10.8,24,24,24h112
	c13.2,0,24-10.8,24-24v-8h128v144C464,417.6,449.6,432,432,432z"/>
</svg>
