<?xml version="1.0" encoding="utf-8"?>
<!-- Generator: Adobe Illustrator 25.2.2, SVG Export Plug-In . SVG Version: 6.00 Build 0)  -->
<svg version="1.1" id="Calque_1" xmlns="http://www.w3.org/2000/svg" xmlns:xlink="http://www.w3.org/1999/xlink" x="0px" y="0px"
	 viewBox="0 0 16 16" style="enable-background:new 0 0 16 16;" xml:space="preserve">
<style type="text/css">
	.st0{fill:#F03434;}
	.st1{fill:none;}
	.st2{fill:#5B5B5B;}
</style>
<path id="Tracé_110" class="st0" d="M-274.45-402.91l-5.69,5.85l-2.46,7.08l7.08-2.31l5.69-5.69L-274.45-402.91z M-267.21-403.38
	l-2-2c-0.69-0.76-1.87-0.83-2.63-0.13c-0.05,0.04-0.09,0.09-0.13,0.13l-1.69,1.69l4.61,4.77l1.85-1.85
	c0.38-0.36,0.61-0.86,0.62-1.38C-266.64-402.62-266.86-403.06-267.21-403.38z"/>
<rect id="Rectangle_481" x="0" y="0" class="st1" width="16" height="16"/>
<path id="Tracé_148" class="st2" d="M14.93,2.25c0.25,0,0.48,0.1,0.67,0.27C15.86,2.7,16.01,3,16,3.32v10
	c0,0.25-0.1,0.48-0.27,0.67c-0.23,0.17-0.51,0.26-0.8,0.27H1.07c-0.29-0.01-0.57-0.1-0.8-0.27C0.1,13.75,0.01,13.48,0,13.19V3.32
	c0-0.25,0.1-0.48,0.27-0.67c0.18-0.26,0.48-0.41,0.8-0.4H14.93z M4.53,4.65c-0.29-0.27-0.67-0.41-1.07-0.4
	C3.07,4.24,2.69,4.39,2.4,4.65C2.13,4.94,1.99,5.33,2,5.72C1.99,6.11,2.13,6.5,2.4,6.79c0.29,0.27,0.67,0.41,1.07,0.4
	c0.39,0.01,0.78-0.13,1.07-0.4C4.8,6.5,4.94,6.11,4.93,5.72C4.94,5.33,4.8,4.94,4.53,4.65z M14,12.25l-4-6l-3.6,4.67L4,9.19l-2,3.07
	H14z"/>
</svg>
