<?xml version="1.0" encoding="utf-8"?>
<!-- Generator: Adobe Illustrator 25.2.3, SVG Export Plug-In . SVG Version: 6.00 Build 0)  -->
<svg version="1.1" id="Calque_1" xmlns="http://www.w3.org/2000/svg" xmlns:xlink="http://www.w3.org/1999/xlink" x="0px" y="0px"
	 viewBox="0 0 16 16" style="enable-background:new 0 0 16 16;" xml:space="preserve">
<style type="text/css">
	.st0{fill-rule:evenodd;clip-rule:evenodd;}
</style>
<path class="st0" d="M14.6,6.6c0,1.5-0.5,2.9-1.5,4.1c-1,1.1-2.4,1.9-3.8,2.1v2.8c0,0.1,0,0.1-0.1,0.3C9.1,15.9,9,16,8.9,16H7.6
	c-0.1,0-0.1,0-0.3-0.1c-0.1-0.1-0.1-0.2,0-0.3c0,0,0,0,0,0v-2.8c-1.5-0.2-2.8-1-3.8-2.1C2.5,9.6,2,8.1,2,6.6c0-0.2,0.1-0.5,0.3-0.7
	c0.2-0.2,0.4-0.3,0.7-0.3c0.2,0,0.5,0.1,0.7,0.3C3.8,6.1,4,6.3,4,6.6c0,1.2,0.4,2.3,1.3,3c0.8,0.8,1.9,1.3,3,1.3
	c1.2,0,2.3-0.4,3-1.3c0.8-0.8,1.2-1.9,1.2-3c0-0.5,0.4-0.9,0.9-0.9c0.2,0,0.5,0.1,0.6,0.3C14.4,6.1,14.6,6.3,14.6,6.6z M5.3,6.6V2.9
	c0-0.8,0.3-1.6,0.9-2.1C6.8,0.2,7.6,0,8.3,0c0.8-0.1,1.6,0.3,2.1,0.9c0.5,0.5,0.8,1.2,0.8,2v3.7c0,0.8-0.3,1.6-0.9,2.1
	c-0.5,0.5-1.2,0.8-2,0.8c-0.8,0-1.6-0.2-2.1-0.8C5.6,8.2,5.3,7.4,5.3,6.6z"/>
</svg>
