<?xml version="1.0" encoding="utf-8"?>
<!-- Generator: Adobe Illustrator 25.2.2, SVG Export Plug-In . SVG Version: 6.00 Build 0)  -->
<svg version="1.1" id="Calque_1" xmlns="http://www.w3.org/2000/svg" xmlns:xlink="http://www.w3.org/1999/xlink" x="0px" y="0px"
	 viewBox="0 0 16 16" style="enable-background:new 0 0 16 16;" xml:space="preserve">
<style type="text/css">
	.st0{fill:#F03434;}
	.st1{fill:none;}
	.st2{fill:#5B5B5B;}
</style>
<path id="Tracé_110" class="st0" d="M-274.45-402.91l-5.69,5.85l-2.46,7.08l7.08-2.31l5.69-5.69L-274.45-402.91z M-267.21-403.38
	l-2-2c-0.69-0.76-1.87-0.83-2.63-0.13c-0.05,0.04-0.09,0.09-0.13,0.13l-1.69,1.69l4.61,4.77l1.85-1.85
	c0.38-0.36,0.61-0.86,0.62-1.38C-266.64-402.62-266.86-403.06-267.21-403.38z"/>
<rect id="Rectangle_481" x="0" y="0" class="st1" width="16" height="16"/>
<path id="Tracé_146" class="st2" d="M8,0C3.58,0,0,3.58,0,8s3.58,8,8,8s8-3.58,8-8C15.99,3.59,12.41,0.01,8,0z M7.92,13.28
	c-0.62,0-1.12-0.5-1.12-1.12c0-0.62,0.5-1.12,1.12-1.12s1.12,0.5,1.12,1.12l0,0c0.01,0.6-0.46,1.11-1.07,1.12
	C7.96,13.28,7.94,13.28,7.92,13.28z M10.08,7.04L9.2,8C9,8.18,8.88,8.45,8.88,8.72C8.87,9.25,8.45,9.67,7.92,9.68
	C7.41,9.7,6.98,9.3,6.96,8.79c0-0.02,0-0.05,0-0.07C6.94,8.17,7.17,7.63,7.6,7.28L8.32,6.4c0.31-0.3,0.51-0.69,0.56-1.12
	C8.9,4.82,8.55,4.42,8.08,4.4c-0.03,0-0.06,0-0.08,0C7.55,4.38,7.15,4.68,7.04,5.12C6.85,5.48,6.48,5.69,6.08,5.68
	C5.62,5.7,5.22,5.35,5.2,4.88c0-0.03,0-0.06,0-0.08C5.19,4.66,5.22,4.53,5.28,4.4C5.71,3.3,6.82,2.61,8,2.72
	c1.43-0.11,2.68,0.95,2.79,2.38c0,0.06,0.01,0.12,0.01,0.18C10.79,5.94,10.53,6.56,10.08,7.04z"/>
</svg>
