<?xml version="1.0" encoding="utf-8"?>
<!-- Generator: Adobe Illustrator 25.2.2, SVG Export Plug-In . SVG Version: 6.00 Build 0)  -->
<svg version="1.1" id="Calque_1" xmlns="http://www.w3.org/2000/svg" xmlns:xlink="http://www.w3.org/1999/xlink" x="0px" y="0px"
	 viewBox="0 0 16 16" style="enable-background:new 0 0 16 16;" xml:space="preserve">
<style type="text/css">
	.st0{fill:#F03434;}
	.st1{fill:none;}
	.st2{fill:#5B5B5B;}
</style>
<path id="Tracé_110" class="st0" d="M-274.45-402.91l-5.69,5.85l-2.46,7.08l7.08-2.31l5.69-5.69L-274.45-402.91z M-267.21-403.38
	l-2-2c-0.69-0.76-1.87-0.83-2.63-0.13c-0.05,0.04-0.09,0.09-0.13,0.13l-1.69,1.69l4.61,4.77l1.85-1.85
	c0.38-0.36,0.61-0.86,0.62-1.38C-266.64-402.62-266.86-403.06-267.21-403.38z"/>
<rect id="Rectangle_481" x="0" y="0" class="st1" width="16" height="16"/>
<path id="Tracé_4" class="st2" d="M2.4,2.4C3.82,0.82,5.87-0.06,8,0c2.13-0.06,4.18,0.82,5.6,2.4C15.18,3.82,16.06,5.87,16,8
	c0.06,2.13-0.82,4.18-2.4,5.6c-1.42,1.58-3.47,2.46-5.6,2.4c-2.13,0.06-4.18-0.82-5.6-2.4C0.89,12.12,0.03,10.11,0,8
	C-0.06,5.87,0.82,3.82,2.4,2.4z M9.07,14.4c0.79-0.14,1.5-0.57,2-1.2c0.55-0.84,0.87-1.8,0.93-2.8c0.01-0.6-0.24-1.18-0.67-1.6
	C10.89,8.3,10.26,8.01,9.6,8H8.27c-0.41-0.02-0.82-0.12-1.2-0.27C6.8,7.5,6.66,7.15,6.67,6.8c0-0.21,0.1-0.4,0.27-0.53
	C7.08,6.13,7.27,6.03,7.47,6c0.27,0.03,0.52,0.17,0.67,0.4c0.27,0.13,0.4,0.27,0.53,0.27C8.85,6.69,9.04,6.64,9.2,6.53
	C9.31,6.38,9.35,6.19,9.33,6C9.28,5.49,9.04,5.02,8.67,4.67c0.42-0.78,0.65-1.65,0.67-2.53C9.32,1.99,9.21,1.88,9.07,1.87
	C8.72,1.73,8.37,1.64,8,1.6C6.77,1.63,5.57,2,4.53,2.67C3.75,3.33,3.3,4.31,3.33,5.33C3.32,6.29,3.71,7.21,4.4,7.87
	c0.67,0.67,1.58,1.05,2.53,1.07l0,0v0.53c-0.03,0.5,0.17,0.99,0.53,1.33c0.28,0.41,0.71,0.7,1.2,0.8V14c0,0.13,0,0.13,0.13,0.27
	S8.93,14.4,9.07,14.4z"/>
</svg>
