<?xml version="1.0" encoding="utf-8"?>
<!-- Generator: Adobe Illustrator 25.2.2, SVG Export Plug-In . SVG Version: 6.00 Build 0)  -->
<svg version="1.1" id="Calque_1" xmlns="http://www.w3.org/2000/svg" xmlns:xlink="http://www.w3.org/1999/xlink" x="0px" y="0px"
	 viewBox="0 0 16 16" style="enable-background:new 0 0 16 16;" xml:space="preserve">
<style type="text/css">
	.st0{fill:#F03434;}
	.st1{fill:none;}
	.st2{fill-rule:evenodd;clip-rule:evenodd;fill:#5B5B5B;}
</style>
<path id="Tracé_110" class="st0" d="M-274.45-402.91l-5.69,5.85l-2.46,7.08l7.08-2.31l5.69-5.69L-274.45-402.91z M-267.21-403.38
	l-2-2c-0.69-0.76-1.87-0.83-2.63-0.13c-0.05,0.04-0.09,0.09-0.13,0.13l-1.69,1.69l4.61,4.77l1.85-1.85
	c0.38-0.36,0.61-0.86,0.62-1.38C-266.64-402.62-266.86-403.06-267.21-403.38z"/>
<rect id="Rectangle_481" x="0" y="0" class="st1" width="16" height="16"/>
<path id="icon-camera" class="st2" d="M8,10.5c1.1,0,2-0.9,2-2s-0.9-2-2-2s-2,0.9-2,2C6,9.6,6.9,10.5,8,10.5z M8,4.5
	c2.21,0,4,1.79,4,4s-1.79,4-4,4s-4-1.79-4-4C4.01,6.29,5.79,4.51,8,4.5z M14,15.5H2c-0.53,0-1.03-0.22-1.4-0.6
	C0.22,14.53,0,14.03,0,13.5v-9c0-1.1,0.9-2,2-2h1.6L5.1,1c0.32-0.32,0.75-0.5,1.2-0.5h3.5c0.42,0.02,0.81,0.2,1.1,0.5l1.5,1.5H14
	c1.1,0,2,0.9,2,2v9C16,14.6,15.1,15.5,14,15.5z"/>
</svg>
