<?xml version="1.0" encoding="utf-8"?>
<!-- Generator: Adobe Illustrator 25.2.2, SVG Export Plug-In . SVG Version: 6.00 Build 0)  -->
<svg version="1.1" id="Calque_1" xmlns="http://www.w3.org/2000/svg" xmlns:xlink="http://www.w3.org/1999/xlink" x="0px" y="0px"
	 viewBox="0 0 16 16" style="enable-background:new 0 0 16 16;" xml:space="preserve">
<style type="text/css">
	.st0{fill:none;}
	.st1{fill:#5B5B5B;}
</style>
<rect id="Rectangle_481" class="st0" width="16" height="16"/>
<path id="icon-folder" class="st1" d="M0,12.92V2.98c0-0.27,0.11-0.53,0.31-0.72C0.49,2.09,0.73,2,0.98,2h5.75
	c0.15,0,0.3,0.05,0.41,0.15C7.29,2.23,7.4,2.36,7.46,2.51l0.52,1.45h6.99c0.27,0,0.53,0.11,0.73,0.31c0.2,0.18,0.32,0.45,0.31,0.72
	v7.97c0,0.27-0.11,0.53-0.31,0.73c-0.18,0.2-0.45,0.32-0.73,0.31H0.98c-0.27,0-0.53-0.11-0.73-0.31C0.1,13.47,0.01,13.2,0,12.92z"/>
</svg>
