<?xml version="1.0" encoding="utf-8"?>
<!-- Generator: Adobe Illustrator 25.2.2, SVG Export Plug-In . SVG Version: 6.00 Build 0)  -->
<svg version="1.1" id="Calque_1" xmlns="http://www.w3.org/2000/svg" xmlns:xlink="http://www.w3.org/1999/xlink" x="0px" y="0px"
	 viewBox="0 0 16 16" style="enable-background:new 0 0 16 16;" xml:space="preserve">
<style type="text/css">
	.st0{fill:#F03434;}
</style>
<path id="Tracé_110" class="st0" d="M-274.45-402.91l-5.69,5.85l-2.46,7.08l7.08-2.31l5.69-5.69L-274.45-402.91z M-267.21-403.38
	l-2-2c-0.69-0.76-1.87-0.83-2.63-0.13c-0.05,0.04-0.09,0.09-0.13,0.13l-1.69,1.69l4.61,4.77l1.85-1.85
	c0.38-0.36,0.61-0.86,0.62-1.38C-266.64-402.62-266.86-403.06-267.21-403.38z"/>
<path id="Tracé_110_1_" class="st0" d="M8.15,3.08L2.46,8.92L0,16l7.08-2.31L12.77,8L8.15,3.08z M15.39,2.62l-2-2
	c-0.69-0.76-1.87-0.83-2.63-0.13c-0.05,0.04-0.09,0.09-0.13,0.13L8.92,2.31l4.61,4.77l1.85-1.85c0.38-0.36,0.61-0.86,0.62-1.38
	C15.96,3.37,15.74,2.93,15.39,2.62z"/>
</svg>
